<svg width="39" height="27" viewBox="0 0 39 27" fill="none" xmlns="http://www.w3.org/2000/svg">
<path d="M0.613281 9V0.46875H3.02148C3.76367 0.46875 4.41992 0.632812 4.99023 0.960938C5.56055 1.28906 6 1.75586 6.30859 2.36133C6.62109 2.9668 6.7793 3.66211 6.7832 4.44727V4.99219C6.7832 5.79688 6.62695 6.50195 6.31445 7.10742C6.00586 7.71289 5.5625 8.17773 4.98438 8.50195C4.41016 8.82617 3.74023 8.99219 2.97461 9H0.613281ZM1.73828 1.39453V8.08008H2.92188C3.78906 8.08008 4.46289 7.81055 4.94336 7.27148C5.42773 6.73242 5.66992 5.96484 5.66992 4.96875V4.4707C5.66992 3.50195 5.44141 2.75 4.98438 2.21484C4.53125 1.67578 3.88672 1.40234 3.05078 1.39453H1.73828ZM9.49609 9H8.41211V2.66016H9.49609V9ZM8.32422 0.978516C8.32422 0.802734 8.37695 0.654297 8.48242 0.533203C8.5918 0.412109 8.75195 0.351562 8.96289 0.351562C9.17383 0.351562 9.33398 0.412109 9.44336 0.533203C9.55273 0.654297 9.60742 0.802734 9.60742 0.978516C9.60742 1.1543 9.55273 1.30078 9.44336 1.41797C9.33398 1.53516 9.17383 1.59375 8.96289 1.59375C8.75195 1.59375 8.5918 1.53516 8.48242 1.41797C8.37695 1.30078 8.32422 1.1543 8.32422 0.978516ZM14.9277 7.31836C14.9277 7.02539 14.8164 6.79883 14.5938 6.63867C14.375 6.47461 13.9902 6.33398 13.4395 6.2168C12.8926 6.09961 12.457 5.95898 12.1328 5.79492C11.8125 5.63086 11.5742 5.43555 11.418 5.20898C11.2656 4.98242 11.1895 4.71289 11.1895 4.40039C11.1895 3.88086 11.4082 3.44141 11.8457 3.08203C12.2871 2.72266 12.8496 2.54297 13.5332 2.54297C14.252 2.54297 14.834 2.72852 15.2793 3.09961C15.7285 3.4707 15.9531 3.94531 15.9531 4.52344H14.8633C14.8633 4.22656 14.7363 3.9707 14.4824 3.75586C14.2324 3.54102 13.916 3.43359 13.5332 3.43359C13.1387 3.43359 12.8301 3.51953 12.6074 3.69141C12.3848 3.86328 12.2734 4.08789 12.2734 4.36523C12.2734 4.62695 12.377 4.82422 12.584 4.95703C12.791 5.08984 13.1641 5.2168 13.7031 5.33789C14.2461 5.45898 14.6855 5.60352 15.0215 5.77148C15.3574 5.93945 15.6055 6.14258 15.7656 6.38086C15.9297 6.61523 16.0117 6.90234 16.0117 7.24219C16.0117 7.80859 15.7852 8.26367 15.332 8.60742C14.8789 8.94727 14.291 9.11719 13.5684 9.11719C13.0605 9.11719 12.6113 9.02734 12.2207 8.84766C11.8301 8.66797 11.5234 8.41797 11.3008 8.09766C11.082 7.77344 10.9727 7.42383 10.9727 7.04883H12.0566C12.0762 7.41211 12.2207 7.70117 12.4902 7.91602C12.7637 8.12695 13.123 8.23242 13.5684 8.23242C13.9785 8.23242 14.3066 8.15039 14.5527 7.98633C14.8027 7.81836 14.9277 7.5957 14.9277 7.31836ZM22.7793 5.90039C22.7793 6.86523 22.5586 7.64258 22.1172 8.23242C21.6758 8.82227 21.0781 9.11719 20.3242 9.11719C19.5547 9.11719 18.9492 8.87305 18.5078 8.38477V11.4375H17.4238V2.66016H18.4141L18.4668 3.36328C18.9082 2.81641 19.5215 2.54297 20.3066 2.54297C21.0684 2.54297 21.6699 2.83008 22.1113 3.4043C22.5566 3.97852 22.7793 4.77734 22.7793 5.80078V5.90039ZM21.6953 5.77734C21.6953 5.0625 21.543 4.49805 21.2383 4.08398C20.9336 3.66992 20.5156 3.46289 19.9844 3.46289C19.3281 3.46289 18.8359 3.75391 18.5078 4.33594V7.36523C18.832 7.94336 19.3281 8.23242 19.9961 8.23242C20.5156 8.23242 20.9277 8.02734 21.2324 7.61719C21.541 7.20312 21.6953 6.58984 21.6953 5.77734ZM25.3398 9H24.2559V0H25.3398V9ZM30.9941 9C30.9316 8.875 30.8809 8.65234 30.8418 8.33203C30.3379 8.85547 29.7363 9.11719 29.0371 9.11719C28.4121 9.11719 27.8984 8.94141 27.4961 8.58984C27.0977 8.23438 26.8984 7.78516 26.8984 7.24219C26.8984 6.58203 27.1484 6.07031 27.6484 5.70703C28.1523 5.33984 28.8594 5.15625 29.7695 5.15625H30.8242V4.6582C30.8242 4.2793 30.7109 3.97852 30.4844 3.75586C30.2578 3.5293 29.9238 3.41602 29.4824 3.41602C29.0957 3.41602 28.7715 3.51367 28.5098 3.70898C28.248 3.9043 28.1172 4.14062 28.1172 4.41797H27.0273C27.0273 4.10156 27.1387 3.79688 27.3613 3.50391C27.5879 3.20703 27.8926 2.97266 28.2754 2.80078C28.6621 2.62891 29.0859 2.54297 29.5469 2.54297C30.2773 2.54297 30.8496 2.72656 31.2637 3.09375C31.6777 3.45703 31.8926 3.95898 31.9082 4.59961V7.51758C31.9082 8.09961 31.9824 8.5625 32.1309 8.90625V9H30.9941ZM29.1953 8.17383C29.5352 8.17383 29.8574 8.08594 30.1621 7.91016C30.4668 7.73438 30.6875 7.50586 30.8242 7.22461V5.92383H29.9746C28.6465 5.92383 27.9824 6.3125 27.9824 7.08984C27.9824 7.42969 28.0957 7.69531 28.3223 7.88672C28.5488 8.07812 28.8398 8.17383 29.1953 8.17383ZM35.5879 7.41211L37.0645 2.66016H38.2246L35.6758 9.97852C35.2812 11.0332 34.6543 11.5605 33.7949 11.5605L33.5898 11.543L33.1855 11.4668V10.5879L33.4785 10.6113C33.8457 10.6113 34.1309 10.5371 34.334 10.3887C34.541 10.2402 34.7109 9.96875 34.8438 9.57422L35.084 8.92969L32.8223 2.66016H34.0059L35.5879 7.41211ZM8.09473 21.0674C7.98047 22.0449 7.61865 22.8003 7.00928 23.3335C6.40413 23.8625 5.59798 24.127 4.59082 24.127C3.49902 24.127 2.62305 23.7355 1.96289 22.9526C1.30697 22.1698 0.979004 21.1224 0.979004 19.8105V18.9219C0.979004 18.0628 1.13135 17.3075 1.43604 16.6558C1.74495 16.0041 2.18083 15.5047 2.74365 15.1577C3.30648 14.8065 3.95817 14.6309 4.69873 14.6309C5.6805 14.6309 6.46761 14.9059 7.06006 15.4561C7.65251 16.002 7.9974 16.7594 8.09473 17.7285H6.86963C6.76383 16.9922 6.5332 16.459 6.17773 16.1289C5.8265 15.7988 5.3335 15.6338 4.69873 15.6338C3.92008 15.6338 3.30859 15.9215 2.86426 16.4971C2.42415 17.0726 2.2041 17.8914 2.2041 18.9536V19.8486C2.2041 20.8516 2.41357 21.6493 2.83252 22.2417C3.25146 22.8341 3.83757 23.1304 4.59082 23.1304C5.2679 23.1304 5.7863 22.978 6.146 22.6733C6.50993 22.3644 6.75114 21.8291 6.86963 21.0674H8.09473ZM9.26904 20.5024C9.26904 19.8296 9.40023 19.2244 9.6626 18.687C9.9292 18.1496 10.2974 17.7349 10.7671 17.4429C11.241 17.1509 11.7806 17.0049 12.3857 17.0049C13.321 17.0049 14.0763 17.3286 14.6519 17.9761C15.2316 18.6235 15.5215 19.4847 15.5215 20.5596V20.6421C15.5215 21.3107 15.3924 21.9116 15.1343 22.4448C14.8804 22.9738 14.5143 23.3864 14.0361 23.6826C13.5622 23.9788 13.0163 24.127 12.3984 24.127C11.4674 24.127 10.7121 23.8032 10.1323 23.1558C9.5568 22.5083 9.26904 21.6514 9.26904 20.585V20.5024ZM10.4497 20.6421C10.4497 21.4038 10.6253 22.0153 10.9766 22.4766C11.332 22.9378 11.806 23.1685 12.3984 23.1685C12.9951 23.1685 13.4691 22.9357 13.8203 22.4702C14.1715 22.0005 14.3472 21.3446 14.3472 20.5024C14.3472 19.7492 14.1673 19.1398 13.8076 18.6743C13.4521 18.2046 12.9782 17.9697 12.3857 17.9697C11.806 17.9697 11.3384 18.2004 10.9829 18.6616C10.6274 19.1229 10.4497 19.783 10.4497 20.6421ZM18.105 17.1318L18.1431 17.9951C18.6678 17.335 19.3534 17.0049 20.1997 17.0049C21.6512 17.0049 22.3833 17.8237 22.396 19.4614V24H21.2217V19.4551C21.2174 18.96 21.1032 18.5939 20.8789 18.3569C20.6589 18.12 20.314 18.0015 19.8442 18.0015C19.4634 18.0015 19.1291 18.103 18.8413 18.3062C18.5535 18.5093 18.3293 18.7759 18.1685 19.106V24H16.9941V17.1318H18.105ZM24.5605 24V18.0396H23.4751V17.1318H24.5605V16.5479C24.5605 15.7819 24.7785 15.1852 25.2144 14.7578C25.6545 14.3304 26.2744 14.1167 27.0742 14.1167C27.5482 14.1167 28.147 14.2458 28.8706 14.5039L28.6738 15.4941C28.1449 15.2826 27.6413 15.1768 27.1631 15.1768C26.6595 15.1768 26.2956 15.291 26.0713 15.5195C25.8512 15.7438 25.7412 16.0824 25.7412 16.5352V17.1318H27.144V18.0396H25.7412V24H24.5605ZM29.4546 24H28.2739V17.1318H29.4546V24ZM31.0859 20.5088C31.0859 19.4382 31.3335 18.5876 31.8286 17.957C32.3237 17.3223 32.9797 17.0049 33.7964 17.0049C34.6343 17.0049 35.2881 17.3011 35.7578 17.8936L35.8149 17.1318H36.8877V23.835C36.8877 24.7236 36.6232 25.424 36.0942 25.936C35.5695 26.4481 34.8628 26.7041 33.9741 26.7041C33.479 26.7041 32.9945 26.5983 32.5205 26.3867C32.0465 26.1751 31.6847 25.8853 31.4351 25.5171L32.0444 24.8125C32.548 25.4346 33.1637 25.7456 33.8916 25.7456C34.4629 25.7456 34.9072 25.5848 35.2246 25.2632C35.5462 24.9416 35.707 24.4888 35.707 23.9048V23.3145C35.2373 23.8561 34.5962 24.127 33.7837 24.127C32.9797 24.127 32.328 23.8032 31.8286 23.1558C31.3335 22.5083 31.0859 21.626 31.0859 20.5088ZM32.2666 20.6421C32.2666 21.4165 32.4253 22.0259 32.7427 22.4702C33.0601 22.9103 33.5044 23.1304 34.0757 23.1304C34.8162 23.1304 35.36 22.7939 35.707 22.1211V18.9854C35.3473 18.3294 34.8078 18.0015 34.0884 18.0015C33.5171 18.0015 33.0706 18.2236 32.749 18.668C32.4274 19.1123 32.2666 19.7703 32.2666 20.6421Z" fill="black"/>
</svg>
